<svg width="174" height="36" viewBox="0 0 174 36" fill="none" xmlns="http://www.w3.org/2000/svg">
<path fill-rule="evenodd" clip-rule="evenodd" d="M34.4475 14.8828C34.6189 15.8968 34.7078 16.9394 34.7078 18.0017C34.7078 21.7265 33.6179 25.1857 31.7492 28.0567C31.0212 27.745 30.3059 27.3455 30.0096 26.8977C29.5483 26.1976 29.4213 24.885 29.3684 23.7634C29.343 23.2125 29.2562 22.5716 29.252 21.9833C29.2477 21.4192 29.1165 20.7388 29.0742 20.2076C29.2964 20.054 29.453 19.8455 29.6498 19.6391C29.7895 19.4921 29.8255 19.4789 29.9694 19.3582L31.4212 17.8613C31.6286 17.6462 31.7979 17.5364 32.0137 17.3103L32.9047 16.3973C33.3661 16.0153 33.4698 15.8068 33.8168 15.5061L34.4454 14.8806L34.4475 14.8828ZM11.7057 22.7208C10.2963 22.7208 9.57886 21.766 9.57886 20.392C9.57886 18.5153 11.1767 15.4951 12.4591 14.0048L13.6697 12.6242C15.113 11.1229 17.5637 9.17817 19.6228 9.17817C20.7804 9.17817 21.3412 10.4293 21.5592 11.3994C21.737 12.1896 22.1412 16.147 21.8195 16.7858C21.7137 16.9965 20.3804 18.2168 20.1752 18.388C18.1245 20.1001 16.0039 21.5092 13.5025 22.3762C13.0729 22.5255 12.2327 22.7208 11.7079 22.7208H11.7057ZM17.352 0.00121835C23.3009 0.00121835 28.5494 3.10483 31.6751 7.83707C31.6286 7.83268 31.5884 7.83049 31.5545 7.83049C30.6233 7.83049 28.6806 10.2668 28.1875 10.4029C28.1134 9.48326 26.8182 7.38712 26.0098 6.71767C25.4278 6.23698 25.0321 5.85287 24.3083 5.47973C23.4491 5.03855 23.1972 4.92003 22.2428 4.61933C19.2165 3.67112 15.314 4.36032 12.4972 5.58728C11.8094 5.88579 11.2126 6.17991 10.601 6.56183C9.97461 6.95033 9.4159 7.29273 8.8445 7.74269C8.55034 7.97316 8.32813 8.16192 8.05089 8.39019L5.84147 10.6334C5.09019 11.4521 3.9876 13.2541 3.55375 14.2638C2.99717 15.5588 2.43 17.2445 2.43 19.1036C2.43 23.5702 5.38435 26.3336 8.89318 27.5365C12.0846 28.6317 15.7902 28.4978 18.9879 27.5738C19.8239 27.3323 21.0365 26.8582 21.792 26.4368C22.0248 26.3073 22.4079 26.022 22.6385 25.9671C22.6385 27.1238 23.5612 29.2178 24.3654 30.0584C25.358 31.0966 26.5368 31.9219 27.9272 32.2753C25.0003 34.6107 21.3349 36.0001 17.3563 36.0001C7.77154 36.0001 0.000488281 27.9403 0.000488281 17.9995C0.000488281 8.05876 7.77154 -0.000976562 17.3563 -0.000976562L17.352 0.00121835Z" fill="url(#paint0_linear)"/>
<path d="M48.2258 27.3043C47.4576 27.3043 46.7359 27.2099 46.0608 27.019C45.3815 26.828 44.7487 26.5405 44.1646 26.1586C43.5869 25.7788 43.0726 25.3311 42.6218 24.8153C42.1711 24.2973 41.7859 23.7156 41.4706 23.0725C41.1552 22.4294 40.9182 21.7512 40.7595 21.0378C40.6008 20.3267 40.5225 19.5892 40.5225 18.8209C40.5225 18.0439 40.6008 17.2977 40.7595 16.5843C40.9182 15.8732 41.1552 15.1971 41.4727 14.554C41.7922 13.9087 42.1753 13.3293 42.6218 12.82C43.0705 12.3086 43.5847 11.8631 44.1646 11.4811C44.7487 11.0992 45.3794 10.8117 46.0608 10.6207C46.7359 10.432 47.4576 10.3354 48.2258 10.3354C48.8734 10.3354 49.4829 10.4012 50.05 10.5351C50.6236 10.669 51.1505 10.871 51.6288 11.1387C52.1029 11.4043 52.5346 11.7182 52.9261 12.0804C52.9959 12.1462 53.0658 12.2121 53.1335 12.2801V10.5834H56.2868C56.2868 16.0751 56.2868 21.5668 56.2868 27.0563H53.1335V25.3706C53.0658 25.4386 52.9959 25.5045 52.924 25.5703C52.5346 25.9281 52.1029 26.2376 51.6288 26.5032C51.1484 26.7709 50.6236 26.9729 50.05 27.1068C49.4808 27.2385 48.8734 27.3065 48.2258 27.3065V27.3043ZM48.5242 24.2512C49.0469 24.2512 49.5231 24.1897 49.9506 24.0668C50.3717 23.9461 50.7548 23.7661 51.0997 23.5247C51.4531 23.2788 51.76 22.9935 52.0224 22.6686C52.287 22.3416 52.5113 21.9728 52.6954 21.5602C52.8795 21.1432 53.0192 20.7064 53.1123 20.2476C53.2054 19.7933 53.252 19.317 53.252 18.8188C53.252 17.8091 53.0658 16.8916 52.6954 16.0641C52.5134 15.6581 52.2891 15.2915 52.0245 14.9667C51.76 14.644 51.4531 14.3587 51.1018 14.1128C50.7569 13.8714 50.3738 13.6892 49.9527 13.5707C49.5231 13.4478 49.049 13.3863 48.5263 13.3863C48.012 13.3863 47.5401 13.4478 47.1105 13.5707C46.683 13.6914 46.2873 13.8736 45.9275 14.1172C45.5614 14.3631 45.2418 14.6484 44.9646 14.9755C44.6895 15.2981 44.4545 15.6647 44.262 16.0751C44.0651 16.4921 43.9191 16.9245 43.8239 17.3767C43.7265 17.8288 43.68 18.3117 43.68 18.8209C43.68 19.3192 43.7287 19.7955 43.8239 20.2454C43.9212 20.6976 44.0673 21.1322 44.262 21.5514C44.4545 21.9641 44.6895 22.335 44.9667 22.662C45.2439 22.9891 45.5635 23.2744 45.9275 23.5203C46.2873 23.7639 46.683 23.9461 47.1105 24.0668C47.5422 24.1897 48.0142 24.2512 48.5263 24.2512H48.5242ZM59.2729 26.5866V4.36961H62.4262V27.0563H59.2729V26.5866ZM65.4123 32.7367V10.5834H68.5655V12.2494C68.6333 12.1813 68.701 12.1155 68.7729 12.0496C69.1602 11.6919 69.5941 11.3802 70.0723 11.119C70.5506 10.8578 71.0776 10.6602 71.649 10.5285C72.2183 10.399 72.8257 10.3332 73.4732 10.3332C74.2415 10.3332 74.9631 10.4276 75.6382 10.6185C76.3175 10.8095 76.9503 11.097 77.5323 11.4789C78.1122 11.8609 78.6264 12.3064 79.0751 12.8178C79.5216 13.3271 79.9047 13.9065 80.2242 14.5518C80.5417 15.1949 80.7787 15.871 80.9374 16.5821C81.0962 17.2955 81.1745 18.0418 81.1745 18.8188C81.1745 19.587 81.0962 20.3267 80.9374 21.0356C80.7787 21.749 80.5417 22.4272 80.2263 23.0703C79.911 23.7134 79.5259 24.2951 79.0751 24.8153C78.6243 25.3311 78.11 25.781 77.5323 26.1586C76.9482 26.5427 76.3175 26.828 75.6382 27.019C74.9631 27.2077 74.2415 27.3043 73.4732 27.3043C72.8235 27.3043 72.214 27.2363 71.6469 27.1002C71.0734 26.9641 70.5464 26.7578 70.066 26.4834C69.5919 26.2112 69.1602 25.8974 68.7729 25.5418C68.7031 25.4759 68.6333 25.4101 68.5655 25.342V33.2064H65.4123V32.7367V32.7367ZM73.1748 24.2512C73.6933 24.2512 74.1716 24.1897 74.6097 24.0668C75.0435 23.9439 75.435 23.7639 75.7864 23.5247C76.1419 23.281 76.4593 22.9935 76.7366 22.6642C77.0138 22.335 77.2466 21.9641 77.4392 21.5536C77.6339 21.1344 77.7799 20.6976 77.8773 20.2476C77.9746 19.7977 78.0212 19.3214 78.0212 18.8231C78.0212 18.3139 77.9725 17.831 77.8773 17.3789C77.782 16.9267 77.636 16.4943 77.4392 16.0773C77.2466 15.6668 77.0117 15.3003 76.7387 14.9755C76.4636 14.6506 76.1461 14.3631 75.7864 14.1194C75.435 13.8802 75.0435 13.698 74.6097 13.5773C74.1716 13.4544 73.6933 13.3929 73.1748 13.3929C72.6627 13.3929 72.195 13.4544 71.7675 13.5773C71.3442 13.698 70.9591 13.8802 70.6099 14.1194L70.6078 14.1216C70.2544 14.3675 69.9433 14.6506 69.6766 14.9755C69.4099 15.3003 69.1835 15.6647 69.0015 16.0707C68.8153 16.4856 68.6756 16.9201 68.5846 17.3745C68.4915 17.831 68.4449 18.3139 68.4449 18.8231C68.4449 19.813 68.6311 20.7261 69.0015 21.5646C69.1835 21.9728 69.4078 22.3438 69.6766 22.6708C69.9433 22.9957 70.2544 23.281 70.6078 23.5268L70.6099 23.529C70.957 23.7705 71.3442 23.9505 71.7675 24.0712C72.1929 24.1941 72.6627 24.2556 73.1748 24.2556V24.2512ZM83.2336 26.5866V4.36961H86.3869V12.234C86.4313 12.1879 86.4779 12.144 86.5245 12.0979V12.0957C86.8736 11.7621 87.2525 11.457 87.6651 11.1848C88.0969 10.8973 88.5857 10.6822 89.1317 10.5417C89.6693 10.4012 90.2597 10.3332 90.9052 10.3332C91.4597 10.3332 91.9993 10.4012 92.5242 10.5373C93.0469 10.6734 93.5527 10.8775 94.0415 11.1497C94.5325 11.4241 94.9791 11.7665 95.3791 12.1769C95.7769 12.583 96.1282 13.0549 96.433 13.5948C96.7419 14.1414 96.9726 14.745 97.125 15.4057C97.2753 16.0597 97.3514 16.7731 97.3514 17.5457V27.0563H94.1982V17.6072C94.1982 16.9553 94.1093 16.3714 93.9336 15.8578C93.7601 15.353 93.4998 14.9096 93.1548 14.5277C92.8099 14.1458 92.4162 13.8626 91.9718 13.6739C91.5253 13.4829 91.0216 13.3885 90.4587 13.3885C90.0756 13.3885 89.7116 13.4324 89.3709 13.5202C89.028 13.608 88.7064 13.7419 88.4037 13.9175C88.1011 14.0931 87.8281 14.306 87.5847 14.5518C87.3413 14.7999 87.1276 15.0852 86.9414 15.4078C86.7573 15.7305 86.6197 16.0729 86.5287 16.4373C86.4377 16.806 86.3911 17.2055 86.3911 17.6379V27.0563H83.2378V26.5866H83.2336ZM106.959 27.3065C106.191 27.3065 105.47 27.2121 104.794 27.0212C104.115 26.8302 103.482 26.5427 102.898 26.1607C102.321 25.781 101.806 25.3333 101.355 24.8175C100.905 24.2995 100.52 23.7178 100.204 23.0747C99.8889 22.4316 99.6519 21.7534 99.4931 21.04C99.3344 20.3289 99.2561 19.5914 99.2561 18.8231C99.2561 18.0461 99.3344 17.2999 99.4931 16.5865C99.6519 15.8754 99.8889 15.1993 100.206 14.5562C100.526 13.9109 100.909 13.3315 101.355 12.8222C101.804 12.3108 102.318 11.8653 102.898 11.4833C103.482 11.1014 104.113 10.8139 104.794 10.6229C105.47 10.4342 106.191 10.3376 106.959 10.3376C107.607 10.3376 108.217 10.4034 108.784 10.5373C109.357 10.6712 109.884 10.8732 110.362 11.1409C110.837 11.4065 111.268 11.7204 111.658 12.0826C111.727 12.1484 111.797 12.2142 111.865 12.2845V10.5878H115.018V27.0607H111.865V25.375C111.797 25.443 111.727 25.5089 111.656 25.5747C111.266 25.9325 110.834 26.242 110.36 26.5075C109.88 26.7753 109.355 26.9773 108.782 27.1111C108.212 27.2428 107.605 27.3109 106.957 27.3109L106.959 27.3065ZM107.258 24.2534C107.781 24.2534 108.257 24.1919 108.684 24.069C109.105 23.9483 109.488 23.7683 109.833 23.5268C110.187 23.281 110.494 22.9957 110.756 22.6708C111.021 22.3438 111.245 21.975 111.429 21.5624C111.613 21.1454 111.753 20.7086 111.846 20.2498C111.939 19.7955 111.986 19.3192 111.986 18.8209C111.986 17.8113 111.799 16.8938 111.429 16.0663C111.247 15.6603 111.023 15.2937 110.756 14.9689C110.492 14.6462 110.185 14.3609 109.833 14.115C109.488 13.8736 109.105 13.6914 108.684 13.5729C108.255 13.45 107.781 13.3885 107.258 13.3885C106.744 13.3885 106.272 13.45 105.842 13.5729C105.415 13.6936 105.019 13.8758 104.659 14.1194C104.293 14.3653 103.973 14.6506 103.696 14.9776C103.421 15.3003 103.188 15.6668 102.993 16.0773C102.797 16.4943 102.651 16.9267 102.555 17.3789C102.458 17.831 102.412 18.3139 102.412 18.8231C102.412 19.3214 102.46 19.7977 102.555 20.2476C102.653 20.6998 102.799 21.1344 102.993 21.5536C103.186 21.9663 103.421 22.3372 103.698 22.6642C103.975 22.9913 104.295 23.2766 104.659 23.5225C105.019 23.7661 105.415 23.9483 105.842 24.069C106.274 24.1919 106.746 24.2534 107.258 24.2534V24.2534ZM123.911 27.3065C123.194 27.3065 122.531 27.2428 121.92 27.1177C121.302 26.9904 120.737 26.7995 120.227 26.5427C119.719 26.2881 119.268 25.9895 118.878 25.6537C118.483 25.3113 118.146 24.9272 117.875 24.5014V24.4992C117.604 24.0756 117.391 23.6366 117.24 23.1779C117.088 22.7191 116.995 22.2384 116.963 21.7402L116.929 21.2376H120.152L120.201 21.6524C120.227 21.8785 120.277 22.1002 120.351 22.3153C120.428 22.5347 120.531 22.752 120.658 22.9693C120.777 23.1691 120.931 23.3534 121.117 23.5181C121.31 23.6893 121.539 23.8407 121.803 23.9724C122.068 24.1041 122.372 24.2051 122.722 24.2709C123.079 24.339 123.486 24.3741 123.943 24.3741C124.085 24.3741 124.239 24.3675 124.41 24.3521C124.597 24.3368 124.791 24.3148 124.99 24.2863C125.193 24.2578 125.392 24.2182 125.585 24.1656C125.775 24.1151 125.968 24.0492 126.159 23.9724H126.161C126.328 23.9044 126.484 23.8188 126.63 23.7134C126.774 23.6081 126.903 23.4895 127.018 23.3556C127.117 23.2371 127.193 23.101 127.244 22.9474C127.297 22.785 127.325 22.6006 127.325 22.3921C127.325 22.1419 127.28 21.9268 127.193 21.7468C127.109 21.569 126.975 21.4153 126.796 21.2836C126.586 21.13 126.338 20.9895 126.057 20.8644C125.771 20.7371 125.45 20.6274 125.092 20.5352C124.705 20.4342 124.317 20.3376 123.93 20.2454C123.536 20.1511 123.126 20.0589 122.698 19.9645C122.271 19.8701 121.848 19.7604 121.426 19.6331C121.003 19.5058 120.601 19.3653 120.218 19.2138C119.81 19.0514 119.435 18.8539 119.096 18.6234C118.758 18.3907 118.455 18.1208 118.186 17.8157C117.903 17.4908 117.691 17.1089 117.552 16.6743C117.416 16.2507 117.348 15.7766 117.348 15.2498C117.348 14.4794 117.486 13.788 117.763 13.1756C118.043 12.5588 118.459 12.0321 119.012 11.5975C119.556 11.1717 120.222 10.8534 121.012 10.6427C121.78 10.4386 122.667 10.3376 123.674 10.3376C125.06 10.3376 126.201 10.5659 127.094 11.0246C127.538 11.2529 127.932 11.5141 128.275 11.8104C128.624 12.1111 128.918 12.4469 129.155 12.8157C129.39 13.18 129.578 13.5575 129.718 13.9482C129.858 14.3389 129.949 14.7472 129.993 15.1708L130.048 15.691H126.867L126.817 15.2762C126.785 15.0084 126.705 14.7582 126.578 14.5277C126.446 14.2906 126.264 14.0733 126.032 13.8714C125.811 13.6805 125.507 13.5334 125.122 13.4302C124.707 13.3205 124.203 13.2656 123.613 13.2656C122.508 13.2656 121.695 13.4302 121.173 13.7573C120.726 14.0382 120.502 14.464 120.502 15.0325C120.502 15.2696 120.544 15.4715 120.629 15.6383C120.713 15.8051 120.842 15.95 121.018 16.0707C121.232 16.2178 121.479 16.3539 121.761 16.4724C122.047 16.5931 122.37 16.7028 122.732 16.795C123.136 16.9004 123.524 16.9948 123.892 17.0804C124.243 17.1616 124.654 17.2516 125.122 17.3482C125.547 17.436 125.972 17.5457 126.398 17.673C126.823 17.8025 127.227 17.9452 127.61 18.101C128.019 18.2678 128.393 18.472 128.732 18.7134C129.073 18.9548 129.375 19.2336 129.64 19.5497C129.921 19.8833 130.131 20.274 130.268 20.7217C130.404 21.1563 130.472 21.6414 130.472 22.1748C130.472 23.8495 129.851 25.1335 128.611 26.0247C128.014 26.4549 127.318 26.7753 126.525 26.9904C125.742 27.2011 124.87 27.3065 123.907 27.3065H123.911ZM139.216 27.3065C138.448 27.3065 137.726 27.2121 137.051 27.0212C136.372 26.8302 135.739 26.5427 135.155 26.1607C134.577 25.781 134.063 25.3333 133.612 24.8175C133.161 24.2995 132.776 23.7178 132.461 23.0747C132.146 22.4316 131.908 21.7534 131.75 21.04C131.591 20.3289 131.513 19.5914 131.513 18.8231C131.513 18.0461 131.591 17.2999 131.75 16.5865C131.906 15.8754 132.146 15.1993 132.463 14.5562C132.783 13.9109 133.166 13.3315 133.612 12.8222C134.061 12.3108 134.575 11.8653 135.155 11.4833C135.739 11.1014 136.37 10.8139 137.051 10.6229C137.726 10.4342 138.448 10.3376 139.216 10.3376C139.864 10.3376 140.473 10.4034 141.04 10.5373C141.614 10.6712 142.141 10.8732 142.619 11.1409C143.093 11.4065 143.525 11.7204 143.916 12.0826C143.986 12.1484 144.056 12.2142 144.124 12.2823V10.5856H147.277V27.0585H144.124V25.3728C144.056 25.4408 143.986 25.5067 143.914 25.5725C143.525 25.9303 143.093 26.2398 142.619 26.5054C142.139 26.7731 141.614 26.9751 141.04 27.109C140.471 27.2406 139.864 27.3087 139.216 27.3087V27.3065ZM139.517 24.2534C140.039 24.2534 140.515 24.1919 140.945 24.069C141.366 23.9483 141.749 23.7683 142.094 23.5268C142.448 23.281 142.755 22.9957 143.017 22.6708C143.281 22.3438 143.506 21.975 143.69 21.5624C143.874 21.1454 144.014 20.7086 144.107 20.2498C144.2 19.7955 144.247 19.3192 144.247 18.8209C144.247 17.8113 144.06 16.8938 143.69 16.0663C143.508 15.6603 143.284 15.2937 143.019 14.9689C142.755 14.6462 142.448 14.3609 142.096 14.115C141.751 13.8736 141.368 13.6914 140.947 13.5729C140.518 13.45 140.044 13.3885 139.519 13.3885C139.004 13.3885 138.533 13.45 138.103 13.5729C137.675 13.6936 137.28 13.8758 136.92 14.1194C136.554 14.3653 136.234 14.6506 135.957 14.9776C135.682 15.3003 135.449 15.6668 135.254 16.0773C135.058 16.4943 134.912 16.9267 134.816 17.3789C134.719 17.831 134.67 18.3139 134.67 18.8231C134.67 19.3214 134.719 19.7977 134.816 20.2476C134.914 20.6998 135.06 21.1344 135.254 21.5536C135.447 21.9663 135.682 22.3372 135.959 22.6642C136.236 22.9913 136.556 23.2766 136.92 23.5225C137.28 23.7661 137.675 23.9483 138.103 24.069C138.535 24.1919 139.007 24.2534 139.519 24.2534H139.517ZM151.283 26.5888V13.5773H148.708V10.5856H151.283V9.69009C151.283 8.78359 151.419 7.98025 151.687 7.28666C151.963 6.5755 152.377 5.98288 152.93 5.50658C153.471 5.04126 154.108 4.69227 154.843 4.46399C155.562 4.23792 156.373 4.12598 157.277 4.12598H157.909V7.27349H157.156C156.678 7.27349 156.263 7.32836 155.914 7.43591C155.586 7.53688 155.308 7.68833 155.088 7.88806C154.879 8.07683 154.72 8.32924 154.612 8.64312C154.496 8.98333 154.436 9.39378 154.436 9.87885V10.5878H157.911V13.5795H154.436V27.0607H151.283V26.591V26.5888ZM166.264 27.3087C165.471 27.3087 164.722 27.2143 164.017 27.0234C163.312 26.8346 162.656 26.5471 162.047 26.1673V26.1695C161.448 25.792 160.91 25.3464 160.438 24.8284C159.969 24.3148 159.566 23.7332 159.232 23.0835C158.9 22.436 158.65 21.7577 158.483 21.0466C158.316 20.3332 158.233 19.5914 158.233 18.8231C158.233 18.0461 158.311 17.2999 158.47 16.5865C158.629 15.8754 158.866 15.1993 159.183 14.5562C159.501 13.9131 159.89 13.3337 160.347 12.82C160.804 12.3064 161.331 11.8609 161.924 11.4811C162.523 11.0992 163.173 10.8117 163.875 10.6229C164.576 10.4342 165.321 10.3376 166.114 10.3376C166.918 10.3376 167.67 10.432 168.372 10.6229C169.079 10.8139 169.731 11.1014 170.321 11.4811C170.91 11.8609 171.433 12.3064 171.888 12.82C172.34 13.3315 172.728 13.9087 173.045 14.5562C173.363 15.1993 173.6 15.8754 173.758 16.5865C173.917 17.2999 173.995 18.0461 173.995 18.8231V20.2257H161.532C161.583 20.4584 161.647 20.6866 161.721 20.9083C161.854 21.2968 162.023 21.6634 162.229 22.0102C162.432 22.3526 162.673 22.662 162.948 22.9364C163.223 23.2086 163.534 23.4478 163.879 23.652C164.222 23.8539 164.593 24.0053 164.99 24.1041C165.39 24.2051 165.824 24.2556 166.292 24.2556C166.785 24.2556 167.234 24.2007 167.638 24.0887C168.036 23.979 168.393 23.8166 168.713 23.6015C169.043 23.3776 169.333 23.1252 169.587 22.842C169.839 22.5611 170.055 22.245 170.239 21.8938L170.368 21.6458H173.754L173.515 22.2867C173.24 23.0242 172.884 23.6915 172.448 24.2907C172.012 24.8899 171.494 25.4254 170.895 25.893C170.288 26.3671 169.593 26.7226 168.815 26.9597C168.044 27.1924 167.194 27.3109 166.267 27.3109L166.264 27.3087ZM161.583 17.1089H170.654C170.556 16.7028 170.421 16.3231 170.247 15.9654C170 15.4583 169.676 14.9996 169.272 14.5913C168.878 14.1919 168.423 13.8934 167.905 13.6936C167.378 13.4895 166.779 13.3885 166.114 13.3885C165.448 13.3885 164.851 13.4895 164.328 13.6914C163.814 13.8912 163.361 14.1897 162.972 14.5891C162.574 14.9974 162.25 15.4561 161.998 15.9676C161.824 16.3231 161.685 16.7028 161.583 17.1089V17.1089Z" fill="#2C2776"/>
<defs>
<linearGradient id="paint0_linear" x1="-0.00162802" y1="18.0039" x2="34.7078" y2="18.0039" gradientUnits="userSpaceOnUse">
<stop stop-color="#2C2776"/>
<stop offset="1" stop-color="#703F99"/>
</linearGradient>
</defs>
</svg>
