<svg id="Layer_1" data-name="Layer 1" xmlns="http://www.w3.org/2000/svg" viewBox="0 0 1080 1080"><defs><style>.cls-1{fill:#651fff;}</style></defs><path class="cls-1" d="M254.86,509.11v-21.4h-37.3v106.2h37.3v-33c0-24.54,11-35.73,30.43-35.73h3.14V485.93C270.76,485.15,260.94,494.58,254.86,509.11Z"/><path class="cls-1" d="M354.24,485.34c-34.16,0-58.9,25.34-58.9,55.57v.4c0,30.22,24.54,55.16,58.5,55.16,34.16,0,58.9-25.34,58.9-55.56v-.4C412.74,510.28,388.2,485.34,354.24,485.34Zm22.18,56c0,12.75-8.64,23.54-22.18,23.54-13.16,0-22.58-11-22.58-23.94v-.4c0-12.76,8.64-23.55,22.18-23.55,13.16,0,22.58,11,22.58,23.95Z"/><path class="cls-1" d="M481.72,565.06c-12.57,0-21.21-10.41-21.21-24.15v-.4c0-13,8.84-23.55,20.81-23.55,9,0,14.73,4.13,19.83,11.19l25.32-18.85c-9-14.33-23.55-23.75-45.35-23.75-33.56,0-56.93,25.32-56.93,55.36v.4c0,30,23.57,55.16,55.57,55.16,23.35,0,37.49-9.81,47.3-24.34l-24.92-18.07C496.25,560.94,490.55,565.06,481.72,565.06Z"/><path class="cls-1" d="M607.41,545.22c0,11.59-6.67,17.87-15.5,17.87-9,0-15.12-6.28-15.12-17.87V487.71H539.48V557.2c0,24.15,13.55,39.06,36.13,39.06,15.11,0,24.93-8,31.8-16.88v14.53h37.3V487.71h-37.3Z"/><path class="cls-1" d="M702.11,509.11v-21.4h-37.3v106.2h37.3v-33c0-24.54,11-35.73,30.42-35.73h3.14V485.93C718,485.15,708.19,494.58,702.11,509.11Z"/><path class="cls-1" d="M796.19,485.34c-31.42,0-53.6,24.56-53.6,55.57v.4c0,33,23.56,55.16,56.93,55.16,21.2,0,35.92-8.65,46.14-21.6l-20.61-17.08c-7.66,7.46-14.73,10.8-23.57,10.8-11.58,0-20-5.9-23-17.47h71.07c.19-2.56.19-5.31.19-7.66C849.77,512.25,832.89,485.34,796.19,485.34Zm-18.26,46.73c2-11.58,8.63-19.23,18.45-19.23,10.21,0,17.08,7.46,18.45,19.23Z"/><polygon class="cls-1" points="950.16 523.63 995.31 456.49 952.51 456.49 927.97 495.17 903.63 456.49 859.85 456.49 905 524.03 857.89 593.91 900.69 593.91 927.19 552.5 953.49 593.91 997.27 593.91 950.16 523.63"/><path class="cls-1" d="M82.73,583.56v40H120V619.7a18.56,18.56,0,0,0-5.45-13.14L89,581A3.66,3.66,0,0,0,82.73,583.56Z"/><path class="cls-1" d="M173.22,488.64a40.23,40.23,0,0,0-14.71-2.75H82.73V564.4A3.66,3.66,0,0,0,89,567l25.61-25.61A18.59,18.59,0,0,0,120,528.24V513.46h34.44a18.88,18.88,0,0,1,18.88,18.89v8.2a18.88,18.88,0,0,1-18.88,18.88H120.08V545.62L91.72,574l28.36,28.36V587h38.43A40.54,40.54,0,0,0,199,546.48V526.41A40.53,40.53,0,0,0,173.22,488.64Z"/></svg>